<svg width="512" height="512" viewBox="0 0 512 512" fill="none" xmlns="http://www.w3.org/2000/svg">
  <defs>
    <linearGradient id="bg" x1="72" y1="52" x2="438" y2="466" gradientUnits="userSpaceOnUse">
      <stop stop-color="#2DD4BF"/>
      <stop offset="0.42" stop-color="#0F766E"/>
      <stop offset="1" stop-color="#071A1A"/>
    </linearGradient>
    <linearGradient id="panel" x1="142" y1="120" x2="376" y2="398" gradientUnits="userSpaceOnUse">
      <stop stop-color="#E6FFFB"/>
      <stop offset="1" stop-color="#5EEAD4"/>
    </linearGradient>
    <filter id="shadow" x="88" y="82" width="342" height="348" filterUnits="userSpaceOnUse" color-interpolation-filters="sRGB">
      <feDropShadow dx="0" dy="18" stdDeviation="16" flood-color="#021414" flood-opacity="0.38"/>
    </filter>
  </defs>
  <rect x="18" y="18" width="476" height="476" rx="106" fill="url(#bg)"/>
  <rect x="35" y="35" width="442" height="442" rx="89" stroke="#D7FFFB" stroke-opacity="0.8" stroke-width="10"/>
  <g filter="url(#shadow)">
    <rect x="126" y="122" width="260" height="268" rx="42" fill="#061C1B"/>
    <rect x="150" y="151" width="212" height="60" rx="20" fill="url(#panel)"/>
    <rect x="150" y="226" width="212" height="60" rx="20" fill="#134E4A"/>
    <rect x="150" y="301" width="212" height="60" rx="20" fill="#134E4A"/>
    <circle cx="184" cy="181" r="11" fill="#064E3B"/>
    <circle cx="184" cy="256" r="11" fill="#5EEAD4"/>
    <circle cx="184" cy="331" r="11" fill="#5EEAD4"/>
    <path d="M222 181H326M222 256H326M222 331H326" stroke="#E6FFFB" stroke-width="13" stroke-linecap="round"/>
  </g>
  <path d="M256 390V430M198 430H314M126 258H86M386 258H426" stroke="#BFFFF7" stroke-width="18" stroke-linecap="round"/>
  <circle cx="86" cy="258" r="14" fill="#99F6E4"/>
  <circle cx="426" cy="258" r="14" fill="#99F6E4"/>
</svg>
