<svg width="512" height="512" viewBox="0 0 512 512" fill="none" xmlns="http://www.w3.org/2000/svg">
  <defs>
    <linearGradient id="bg_grad" x1="0" y1="0" x2="512" y2="512" gradientUnits="userSpaceOnUse">
      <stop stop-color="#10B981"/>
      <stop offset="1" stop-color="#047857"/>
    </linearGradient>
    <linearGradient id="leaf_grad" x1="256" y1="100" x2="256" y2="400" gradientUnits="userSpaceOnUse">
      <stop stop-color="#D1FAE5"/>
      <stop offset="1" stop-color="#34D399"/>
    </linearGradient>
    <filter id="glow" x="0" y="0" width="512" height="512" filterUnits="userSpaceOnUse">
      <feGaussianBlur stdDeviation="20" result="blur"/>
      <feComposite in="SourceGraphic" in2="blur" operator="over"/>
    </filter>
  </defs>
  
  <!-- Background Squircle -->
  <rect x="20" y="20" width="472" height="472" rx="120" fill="url(#bg_grad)"/>
  
  <!-- Subtle Inner Border -->
  <rect x="40" y="40" width="432" height="432" rx="100" stroke="white" stroke-opacity="0.1" stroke-width="2"/>

  <!-- Modern Geometric Tree / Leaf Hybrid -->
  <path d="M256 80C256 80 120 200 120 320C120 380 160 420 256 440C352 420 392 380 392 320C392 200 256 80 256 80Z" fill="white" fill-opacity="0.15"/>
  
  <!-- Central Axis (Tech Style) -->
  <rect x="250" y="140" width="12" height="260" rx="6" fill="white" fill-opacity="0.8"/>
  
  <!-- Symmetric Leaves / Data Points -->
  <path d="M256 180L340 240V260L256 200V180Z" fill="white" fill-opacity="0.9"/>
  <path d="M256 180L172 240V260L256 200V180Z" fill="white" fill-opacity="0.9"/>
  
  <path d="M256 260L320 310V325L256 275V260Z" fill="white" fill-opacity="0.7"/>
  <path d="M256 260L192 310V325L256 275V260Z" fill="white" fill-opacity="0.7"/>
  
  <path d="M256 330L300 365V375L256 340V330Z" fill="white" fill-opacity="0.5"/>
  <path d="M256 330L212 365V375L256 340V330Z" fill="white" fill-opacity="0.5"/>

  <!-- AI Nodes -->
  <circle cx="340" cy="250" r="12" fill="#F0FDFA" stroke="#065F46" stroke-width="4"/>
  <circle cx="172" cy="250" r="12" fill="#F0FDFA" stroke="#065F46" stroke-width="4"/>
  <circle cx="320" cy="317" r="10" fill="#F0FDFA" stroke="#065F46" stroke-width="3"/>
  <circle cx="192" cy="317" r="10" fill="#F0FDFA" stroke="#065F46" stroke-width="3"/>
  <circle cx="256" cy="140" r="14" fill="#ECFDF5" stroke="#065F46" stroke-width="4"/>
</svg>
