<svg width="512" height="512" viewBox="0 0 512 512" fill="none" xmlns="http://www.w3.org/2000/svg">
  <defs>
    <linearGradient id="bg" x1="72" y1="46" x2="438" y2="470" gradientUnits="userSpaceOnUse">
      <stop stop-color="#54F28B"/>
      <stop offset="0.48" stop-color="#12864A"/>
      <stop offset="1" stop-color="#073420"/>
    </linearGradient>
    <linearGradient id="canopy" x1="145" y1="118" x2="370" y2="366" gradientUnits="userSpaceOnUse">
      <stop stop-color="#ECFF7A"/>
      <stop offset="0.42" stop-color="#45E169"/>
      <stop offset="1" stop-color="#05703D"/>
    </linearGradient>
    <filter id="shadow" x="74" y="82" width="364" height="360" filterUnits="userSpaceOnUse" color-interpolation-filters="sRGB">
      <feDropShadow dx="0" dy="18" stdDeviation="18" flood-color="#02180E" flood-opacity="0.34"/>
    </filter>
  </defs>
  <rect x="18" y="18" width="476" height="476" rx="116" fill="url(#bg)"/>
  <rect x="33" y="33" width="446" height="446" rx="101" stroke="#DFFFF0" stroke-opacity="0.86" stroke-width="10"/>
  <path d="M94 343C151 321 207 323 259 349C312 376 362 374 418 340" stroke="#C8FFE1" stroke-width="10" stroke-linecap="round" opacity="0.6"/>
  <path d="M102 377C157 356 214 358 266 385C315 410 360 407 409 376" stroke="#062617" stroke-width="9" stroke-linecap="round" opacity="0.42"/>
  <g filter="url(#shadow)">
    <path d="M255 86C210 122 174 167 151 221C132 264 132 312 162 347C193 383 240 389 276 365C321 402 376 377 390 324C401 280 386 231 355 189C327 150 292 117 255 86Z" fill="url(#canopy)"/>
    <path d="M255 112C225 151 205 194 195 241C186 286 197 320 226 341C245 355 268 358 288 349C273 326 263 296 257 260C249 210 249 161 255 112Z" fill="#F4FFAE" fill-opacity="0.34"/>
  </g>
  <path d="M256 385V143" stroke="#042516" stroke-width="20" stroke-linecap="round"/>
  <path d="M256 302L199 257M256 247L317 198M256 342L333 288M256 214L219 177" stroke="#042516" stroke-width="16" stroke-linecap="round" stroke-linejoin="round"/>
  <circle cx="199" cy="257" r="20" fill="#D7FF62" stroke="#042516" stroke-width="10"/>
  <circle cx="317" cy="198" r="20" fill="#D7FF62" stroke="#042516" stroke-width="10"/>
  <circle cx="333" cy="288" r="20" fill="#D7FF62" stroke="#042516" stroke-width="10"/>
  <circle cx="219" cy="177" r="18" fill="#D7FF62" stroke="#042516" stroke-width="10"/>
  <circle cx="256" cy="143" r="18" fill="#F0FF80" stroke="#042516" stroke-width="10"/>
</svg>
