<svg width="512" height="512" viewBox="0 0 512 512" fill="none" xmlns="http://www.w3.org/2000/svg">
  <defs>
    <linearGradient id="bg" x1="72" y1="56" x2="440" y2="456" gradientUnits="userSpaceOnUse">
      <stop stop-color="#2FD36B"/>
      <stop offset="1" stop-color="#0A6B38"/>
    </linearGradient>
    <linearGradient id="tree" x1="256" y1="84" x2="256" y2="420" gradientUnits="userSpaceOnUse">
      <stop stop-color="#B8FF35"/>
      <stop offset="0.52" stop-color="#17CC4B"/>
      <stop offset="1" stop-color="#075A31"/>
    </linearGradient>
    <filter id="shadow" x="92" y="74" width="328" height="344" filterUnits="userSpaceOnUse" color-interpolation-filters="sRGB">
      <feDropShadow dx="0" dy="16" stdDeviation="14" flood-color="#032915" flood-opacity="0.35"/>
    </filter>
  </defs>

  <rect x="16" y="16" width="480" height="480" rx="104" fill="url(#bg)"/>
  <rect x="16" y="16" width="480" height="480" rx="104" stroke="#E8FFF1" stroke-width="8"/>

  <g filter="url(#shadow)">
    <path
      d="M256 84L334 206H306L376 312H320L368 382H294V420H218V382H144L192 312H136L206 206H178L256 84Z"
      fill="url(#tree)"
    />
  </g>

  <path
    d="M256 392V164M256 212L210 248V304L256 338M256 260L304 222V166M256 302L314 258V208M256 356L192 308V252M256 352L332 292"
    stroke="#032B17"
    stroke-width="16"
    stroke-linecap="round"
    stroke-linejoin="round"
  />

  <circle cx="256" cy="164" r="16" fill="#95FF2E" stroke="#032B17" stroke-width="10"/>
  <circle cx="210" cy="248" r="16" fill="#95FF2E" stroke="#032B17" stroke-width="10"/>
  <circle cx="192" cy="308" r="16" fill="#95FF2E" stroke="#032B17" stroke-width="10"/>
  <circle cx="304" cy="222" r="16" fill="#95FF2E" stroke="#032B17" stroke-width="10"/>
  <circle cx="314" cy="258" r="16" fill="#95FF2E" stroke="#032B17" stroke-width="10"/>
  <circle cx="332" cy="292" r="16" fill="#95FF2E" stroke="#032B17" stroke-width="10"/>
</svg>
